<?xml version="1.0" encoding="UTF-8"?>
<svg id="Layer_1" xmlns="http://www.w3.org/2000/svg" version="1.1" viewBox="0 0 3643.5 1345.4">
  <!-- Generator: Adobe Illustrator 29.2.1, SVG Export Plug-In . SVG Version: 2.1.0 Build 116)  -->
  <defs>
    <style>
      .st0 {
        fill: #fff;
      }
    </style>
  </defs>
  <path class="st0" d="M283.2,56.8h781.1c124.2,0,225,100.8,225,225v781.1c0,124.2-100.8,225-225,225H283.2c-124.2,0-225-100.8-225-225V281.9c0-124.2,100.8-225,225-225Z"/>
  <path d="M999.3,897.9c-57.5,22-98.6-6.5-131.1-57.2-39,41.5-76.2,80-112.2,119.6-31.1,34.3-67.4,52-113.3,36.3-48.4-16.6-70.5-54.2-72.8-103.3-1.9-41-.4-82.3-.8-123.4-.1-12.3-1.3-24.5-2.6-47.2-36.9,39.2-68.1,70.6-97.4,103.8-33.5,38.1-72.1,57.9-122.8,40-43.7-15.4-67.4-56-67.7-114.5-.4-63-.4-126,0-189,.4-62.8,25.4-102.6,73.5-118.2,45.7-14.8,84.9,2.3,127.1,58.3,39.5-41.9,77.4-82,115-122.3,30.6-32.9,66.3-48,110.7-32.5,47,16.4,68.9,52.5,71.6,99.8,2.4,42.3.5,84.8.9,127.2,0,12.3,1.3,24.6,2.5,46.6,36.5-38.8,67.7-70.3,97.1-103.4,33.4-37.6,71.8-58.9,122.7-41.1,44.7,15.6,68.7,57.8,68.9,117.8.2,57.8-1.2,115.7.4,173.5,1.6,57.2-11.5,106.6-69.7,128.8Z"/>
  <g>
    <path class="st0" d="M2027.6,979.9v-282.8c0-46.7-24.3-70.9-58.8-70.9s-70.9,21.5-70.9,72.8v280.9h-135.3v-281.9c0-57.9-20.5-74.7-64.4-74.7s-64.4,22.4-64.4,72.8v283.7h-135.3v-459.2h127.9v57.9c28-51.3,70-70,129.7-70s95.2,17.7,127.9,64.4c23.3-42.9,59.7-64.4,123.2-64.4,96.1,0,153.1,70.9,153.1,150.3v321.1h-132.5Z"/>
    <path class="st0" d="M2493.3,979.9c-4.7-10.3-8.4-25.2-9.3-39.2-23.3,29.9-69.1,51.3-137.2,51.3-105.5,0-152.1-50.4-152.1-132.5,0-119.5,90.5-141.9,213.7-160.5,52.3-7.5,67.2-17.7,67.2-46.7s-29.9-40.1-68.1-40.1-70.9,23.3-75.6,57.9h-122.3c1.9-95.2,54.1-161.5,204.4-161.5s197.9,65.3,197.9,181.1v290.3h-118.5ZM2477.5,764.3c-10.3,9.3-28,14.9-67.2,23.3-64.4,14-83.1,31.7-83.1,64.4s17.7,43.9,49.5,43.9c65.3,0,98.9-44.8,99.9-92.4l.9-39.2Z"/>
    <path class="st0" d="M2973,979.9l-.9-54.1c-27.1,46.7-71.9,66.3-119.5,66.3-115.7,0-198.8-92.4-198.8-246.4s68.1-237.1,186.7-237.1,100.8,19.6,129.7,68.1v-224h132.5v627.2h-129.7ZM2974.9,756.9c0-91.5-33.6-132.5-92.4-132.5s-91.5,39.2-91.5,128.8,36.4,128.8,91.5,128.8,92.4-43.9,92.4-125.1Z"/>
    <path class="st0" d="M3279.2,784.9c3.7,57.9,39.2,99.9,90.5,99.9s64.4-15.9,70.9-40.1h139.1c-28,94.3-104.5,147.5-203.5,147.5-154.9,0-232.4-84-232.4-250.1s82.1-233.3,224-233.3,217.5,86.8,217.5,256.7v19.6h-306.1ZM3449.9,703.7c-3.7-60.7-37.3-87.7-84-87.7s-79.3,29.9-84,87.7h168Z"/>
  </g>
</svg>